:SAMPLES-PER-SECOND 30
:FRAME-RANGE 1-3549
:FULLY-SPECIFIED
:DEGREES
3106
root  -35.8249 37.4833 -66.8005 -179.87 25.9169 -178.953
RightUpLeg  -24.3882 -4.25654 13.6309
RightLeg  22.0078 -15.6653 -7.02564
RightFoot  -2.87663 0.898848 -12.3457
RightToes  -1.11029e-010 1.2921e-014 -6.02303e-014
Spine  6.32964 -2.06106 6.02542
Spine1  -1.38755 -1.68842 -0.593234
HEad  10.1737 -28.6169 -0.601168
LeftShoulder1  1.41294 0.00900508 -34.3577
LeftArm  3.34731 6.01733 -32.6124
LeftForeArm  -3.44165 -8.53274 -15.477
LeftHand  0.171469 2.14759 -6.70338
RightShoulder  6.52655 8.23059 48.7322
RightArm  9.55231 -0.0566058 13.5458
RightForeArm  6.12421 6.06098 15.7822
RightHand  0.433144 4.06306 5.04118
LeftUpLeg  13.8167 20.2141 5.68268
LeftLeg  33.2674 -18.3062 -12.1958
LeftFoot  -12.9524 -0.0974247 -12.3903
LeftToes  -1.9349e-011 -1.19469e-011 -2.02219e-012
3107
root  -35.4639 37.1713 -67.9132 -179.589 25.0811 -177.172
RightUpLeg  -24.8385 -3.31685 14.9019
RightLeg  27.8789 -17.3448 -9.93104
RightFoot  -6.27478 0.509497 -12.4077
RightToes  -1.11029e-010 1.2921e-014 -6.02303e-014
Spine  7.38752 -2.6854 7.58049
Spine1  -1.16341 -2.09976 1.20512
HEad  8.18535 -30.6455 0.251214
LeftShoulder1  1.45883 -0.192582 -33.4088
LeftArm  0.574402 9.1173 -33.2557
LeftForeArm  -1.52984 -7.82395 -15.4734
LeftHand  0.17993 1.97773 -6.61977
RightShoulder  7.03752 9.01029 49.2701
RightArm  3.93034 0.954901 13.5575
RightForeArm  13.826 0.824105 16.4352
RightHand  0.426087 4.11792 4.92233
LeftUpLeg  6.66987 15.1224 7.49602
LeftLeg  47.8849 -16.2916 -18.046
LeftFoot  -4.24638 1.50878 -23.6265
LeftToes  -1.9349e-011 -1.19469e-011 -2.02219e-012
3108
root  -35.2054 36.7995 -68.8744 -178.461 23.5755 -175.132
RightUpLeg  -26.0486 -4.61145 16.6343
RightLeg  32.6633 -17.034 -11.6859
RightFoot  -9.68997 0.0988496 -11.3346
RightToes  -1.11029e-010 1.2921e-014 -6.02303e-014
Spine  7.54192 -3.33358 9.67902
Spine1  -0.347281 -2.54772 3.32522
HEad  6.8368 -33.5109 1.57487
LeftShoulder1  1.61348 -0.640509 -32.8849
LeftArm  -0.704783 9.78005 -33.3396
LeftForeArm  0.543363 -5.38491 -16.3028
LeftHand  0.166283 2.0825 -6.3688
RightShoulder  7.10898 9.09667 49.4286
RightArm  2.13705 1.15308 14.3173
RightForeArm  15.6986 -0.429335 16.332
RightHand  0.456561 3.90182 5.43191
LeftUpLeg  -2.22046 9.10102 8.82404
LeftLeg  60.0513 -13.4145 -23.1687
LeftFoot  6.72139 4.32239 -26.9979
LeftToes  -1.9349e-011 -1.19469e-011 -2.02219e-012
3109
root  -34.8204 36.9739 -70.0651 -178.767 24.8593 -174.797
RightUpLeg  -23.3221 -4.64663 16.5516
RightLeg  32.9812 -16.0981 -11.2225
RightFoot  -11.7385 -0.113365 -9.872
RightToes  -1.11029e-010 1.2921e-014 -6.02303e-014
Spine  8.18241 -2.87347 10.7511
Spine1  -0.602548 -1.73338 2.95814
HEad  6.50755 -36.3131 2.73897
LeftShoulder1  1.58199 -0.619787 -32.3181
LeftArm  0.507668 9.61236 -32.9438
LeftForeArm  3.52793 -3.26275 -17.034
LeftHand  0.152362 2.19766 -6.11326
RightShoulder  7.10396 8.80419 50.5597
RightArm  4.49882 0.953649 14.5439
RightForeArm  13.1242 1.11464 16.4686
RightHand  0.479252 3.82372 5.76863
LeftUpLeg  -7.77368 6.31928 9.32708
LeftLeg  66.0125 -9.20769 -21.0369
LeftFoot  4.39781 3.41413 -24.5556
LeftToes  -1.9349e-011 -1.19469e-011 -2.02219e-012
3110
root  -34.4036 37.211 -71.2771 -179.466 27.7136 -175.234
RightUpLeg  -19.8911 -3.01854 15.7044
RightLeg  32.6598 -15.2885 -10.5438
RightFoot  -13.3887 -0.248828 -8.85327
RightToes  -1.11029e-010 1.2921e-014 -6.02303e-014
Spine  9.02887 -2.19713 10.8846
Spine1  -1.26871 -0.770538 2.48223
HEad  6.96398 -37.9423 3.19703
LeftShoulder1  1.43376 -0.270416 -31.9373
LeftArm  1.49837 10.8873 -31.9837
LeftForeArm  5.38583 -3.41723 -17.0126
LeftHand  0.199682 1.51585 -6.33209
RightShoulder  7.30252 8.95953 51.3112
RightArm  8.93644 0.431166 15.3214
RightForeArm  10.8547 3.38893 16.4184
RightHand  0.451069 3.98146 5.31227
LeftUpLeg  -12.1375 5.87011 9.70063
LeftLeg  67.8599 -5.88122 -14.9269
LeftFoot  3.58593 2.6335 -20.0889
LeftToes  -1.9349e-011 -1.19469e-011 -2.02219e-012
3111
root  -33.9418 37.598 -72.4955 -179.996 31.1535 -176.329
RightUpLeg  -16.2227 -0.997325 14.189
RightLeg  30.7998 -14.5123 -9.10867
RightFoot  -14.3618 -0.315713 -8.28351
RightToes  -1.11029e-010 1.2921e-014 -6.02303e-014
Spine  8.86045 -1.49255 10.2676
Spine1  -1.64588 -0.0631274 1.67886
HEad  7.64803 -38.2838 2.85714
LeftShoulder1  1.33228 -0.0327249 -31.6167
LeftArm  2.07876 13.2485 -30.7524
LeftForeArm  4.20387 -4.94907 -16.5945
LeftHand  0.247025 0.988658 -6.7406
RightShoulder  7.44757 9.17117 51.4526
RightArm  15.5021 0.0510155 16.8605
RightForeArm  8.5909 6.55343 15.8565
RightHand  0.446829 4.09452 5.18926
LeftUpLeg  -15.8166 5.55015 9.39211
LeftLeg  65.881 -3.2869 -7.36458
LeftFoot  2.63338 1.832 -15.008
LeftToes  -1.9349e-011 -1.19469e-011 -2.02219e-012
3112
root  -33.4776 38.0336 -73.6925 179.492 34.9139 -177.693
RightUpLeg  -12.5276 0.632331 12.4596
RightLeg  27.967 -13.05 -7.23644
RightFoot  -14.7366 -0.330797 -7.79233
RightToes  -1.11029e-010 1.2921e-014 -6.02303e-014
Spine  8.49224 -0.95806 9.46056
Spine1  -2.12775 0.374901 0.540822
HEad  8.17998 -37.8347 2.03212
LeftShoulder1  1.29235 0.0680327 -31.5577
LeftArm  4.13652 16.0936 -29.2667
LeftForeArm  1.54739 -7.15942 -15.9738
LeftHand  0.236379 1.1072 -6.65771
RightShoulder  7.5128 9.33335 51.251
RightArm  24.9325 -0.473003 18.6262
RightForeArm  4.09944 11.166 14.1397
RightHand  0.440122 4.17793 5.0571
LeftUpLeg  -18.6117 5.28847 8.90046
LeftLeg  60.9052 -0.807178 -1.01294
LeftFoot  0.263458 0.97963 -9.6408
LeftToes  -1.9349e-011 -1.19469e-011 -2.02219e-012
3113
root  -33.0056 38.4602 -74.8335 178.994 38.8491 -179.045
RightUpLeg  -8.90736 1.9847 10.9337
RightLeg  24.642 -10.8345 -5.63201
RightFoot  -14.8047 -0.327435 -7.51333
RightToes  -1.11029e-010 1.2921e-014 -6.02303e-014
Spine  8.06597 -0.52979 8.40828
Spine1  -2.45396 0.605477 -0.312015
HEad  7.90054 -37.168 1.39877
LeftShoulder1  1.25614 0.178165 -31.7134
LeftArm  5.96761 18.7338 -27.8872
LeftForeArm  -0.713222 -8.91668 -15.3507
LeftHand  0.225665 1.15326 -6.44196
RightShoulder  7.40036 9.23412 50.8845
RightArm  37.0037 -0.941977 20.0675
RightForeArm  -3.85521 16.7641 10.6031
RightHand  0.453089 4.37992 5.09243
LeftUpLeg  -20.0811 5.20133 8.72957
LeftLeg  52.73 1.51258 2.589
LeftFoot  -1.15395 0.620517 -6.87962
LeftToes  -1.9349e-011 -1.19469e-011 -2.02219e-012
3114
root  -32.5077 38.8105 -75.9109 178.546 42.8102 179.785
RightUpLeg  -5.45778 2.49123 9.68593
RightLeg  21.1272 -7.67468 -4.35975
RightFoot  -14.751 -0.322239 -7.46982
RightToes  -1.11029e-010 1.2921e-014 -6.02303e-014
Spine  7.65867 -0.243889 7.19318
Spine1  -2.62639 0.667318 -0.960561
HEad  6.82388 -36.7623 1.28722
LeftShoulder1  1.18482 0.373104 -31.7845
LeftArm  6.82437 20.9558 -26.7834
LeftForeArm  -1.81078 -9.80532 -14.9737
LeftHand  0.222466 1.12512 -6.26818
RightShoulder  7.40101 9.31857 50.5582
RightArm  45.0848 -1.63167 20.8949
RightForeArm  -9.10426 21.2648 6.69432
RightHand  0.480876 4.44708 5.37999
LeftUpLeg  -19.9943 5.57731 8.97227
LeftLeg  41.3569 2.51842 2.74691
LeftFoot  -0.853251 0.668946 -7.22762
LeftToes  -1.9349e-011 -1.19469e-011 -2.02219e-012
3115
root  -32.0514 39.1029 -76.9374 178.004 47.0815 178.312
RightUpLeg  -2.54904 2.55088 8.09452
RightLeg  17.9291 -3.64436 -3.4007
RightFoot  -14.6849 -0.316476 -7.43587
RightToes  -1.11029e-010 1.2921e-014 -6.02303e-014
Spine  7.186 0.0856728 5.98315
Spine1  -2.66371 0.885787 -2.00789
HEad  5.24882 -36.6081 1.66899
LeftShoulder1  1.14905 0.453081 -31.6024
LeftArm  5.95575 22.5139 -26.104
LeftForeArm  -1.56315 -9.37424 -15.1401
LeftHand  0.227478 1.13506 -6.46102
RightShoulder  7.43645 9.44813 50.2948
RightArm  45.2369 -2.03822 20.9797
RightForeArm  -7.34231 24.3266 5.57249
RightHand  0.478912 4.47636 5.33902
LeftUpLeg  -18.6223 6.25947 8.94284
LeftLeg  27.745 1.27489 1.05801
LeftFoot  -0.834964 0.852943 -9.20948
LeftToes  -1.9349e-011 -1.19469e-011 -2.02219e-012
3116
root  -31.5841 39.2949 -77.9499 177.068 50.7075 176.893
RightUpLeg  0.169003 2.6568 6.4928
RightLeg  15.5914 -0.198522 -2.98928
RightFoot  -15.1083 -0.331225 -6.96129
RightToes  -1.11029e-010 1.2921e-014 -6.02303e-014
Spine  6.67219 0.0870195 4.46758
Spine1  -2.02424 0.798722 -2.53892
HEad  3.3179 -36.4718 2.43576
LeftShoulder1  1.1568 0.437272 -31.6614
LeftArm  4.72977 23.0035 -25.377
LeftForeArm  -0.702587 -7.86826 -15.7916
LeftHand  0.233087 1.20547 -6.74057
RightShoulder  7.40609 9.46515 50.0262
RightArm  42.9154 -1.93783 20.8831
RightForeArm  -3.60918 26.1878 5.81195
RightHand  0.496196 4.55097 5.4951
LeftUpLeg  -16.3613 5.69986 8.73063
LeftLeg  14.7542 -1.8144 -0.224329
LeftFoot  -0.761795 0.926426 -9.93962
LeftToes  -1.9349e-011 -1.19469e-011 -2.02219e-012
